# xmcd
#
# Track frame offsets:
#	200
#	18690
#	38580
#	57095
#	71575
#	91055
#	110870
#	128250
#	145060
#	160585
#	179745
#	193645
#	208055
#	226170
#
# Disc length: 3260 seconds
#
# Revision: 0
# Processed by: cddbd v1.4PL0 Copyright (c) Steve Scherf et al.
# Submitted via: EasyCDDAExtractor 4.6.9.1
#
DISCID=ba0cba0e
DTITLE=Michael Wayne Deese - Jumpin The Blues
DYEAR=1994
DGENRE=Blues
TTITLE0=Ready For You Baby
TTITLE1=Boogie Down Tonight
TTITLE2=The Blues Has Got Me
TTITLE3=Too Much Monkey Business
TTITLE4=Lorraine
TTITLE5=What's Wrong With You
TTITLE6=Headin' Down To SOS
TTITLE7=Little Bluebird
TTITLE8=Here T'is
TTITLE9=Boogie Man
TTITLE10=Trouble In Mind
TTITLE11=Since I Met You Baby
TTITLE12=All Right O.K. You Win
TTITLE13=Funny How Time Slips Away
EXTD=
EXTT0=Carolina Shag, Beach and Blues\nJovan Records \nP.O. Box 379 Midland NC 
EXTT0=28107
EXTT1=
EXTT2=
EXTT3=
EXTT4=
EXTT5=
EXTT6=
EXTT7=
EXTT8=
EXTT9=
EXTT10=
EXTT11=
EXTT12=
EXTT13=
PLAYORDER=
